<mxfile host="app.diagrams.net" agent="Mozilla/5.0 (Macintosh; Intel Mac OS X 10_15_7) AppleWebKit/537.36 (KHTML, like Gecko) Chrome/130.0.0.0 Safari/537.36" version="24.8.2" pages="2">
  <diagram name="ontology" id="hnzU0sykgPdm_zmrhiE9">
    <mxGraphModel grid="1" page="1" gridSize="10" guides="1" tooltips="1" connect="1" arrows="1" fold="1" pageScale="1" pageWidth="850" pageHeight="1100" math="0" shadow="0">
      <root>
        <mxCell id="0" />
        <mxCell id="1" parent="0" />
        <mxCell id="SAI7cu0bGhrw2tJvzkPH-3" style="rounded=0;orthogonalLoop=1;jettySize=auto;html=1;exitX=0;exitY=0.5;exitDx=0;exitDy=0;entryX=1;entryY=0.5;entryDx=0;entryDy=0;" edge="1" parent="1" source="SAI7cu0bGhrw2tJvzkPH-1" target="SAI7cu0bGhrw2tJvzkPH-2">
          <mxGeometry relative="1" as="geometry" />
        </mxCell>
        <mxCell id="SAI7cu0bGhrw2tJvzkPH-6" style="rounded=0;orthogonalLoop=1;jettySize=auto;html=1;exitX=0;exitY=1;exitDx=0;exitDy=0;entryX=1;entryY=0.5;entryDx=0;entryDy=0;" edge="1" parent="1" source="SAI7cu0bGhrw2tJvzkPH-1" target="SAI7cu0bGhrw2tJvzkPH-5">
          <mxGeometry relative="1" as="geometry" />
        </mxCell>
        <mxCell id="SAI7cu0bGhrw2tJvzkPH-9" style="rounded=0;orthogonalLoop=1;jettySize=auto;html=1;exitX=0.25;exitY=1;exitDx=0;exitDy=0;entryX=0.5;entryY=0;entryDx=0;entryDy=0;" edge="1" parent="1" source="SAI7cu0bGhrw2tJvzkPH-1" target="SAI7cu0bGhrw2tJvzkPH-15">
          <mxGeometry relative="1" as="geometry">
            <mxPoint x="76.81980515339478" y="355.85786437626905" as="targetPoint" />
          </mxGeometry>
        </mxCell>
        <mxCell id="SAI7cu0bGhrw2tJvzkPH-14" value="hasOS" style="edgeLabel;html=1;align=center;verticalAlign=middle;resizable=0;points=[];" connectable="0" vertex="1" parent="SAI7cu0bGhrw2tJvzkPH-9">
          <mxGeometry x="-0.0176" y="1" relative="1" as="geometry">
            <mxPoint as="offset" />
          </mxGeometry>
        </mxCell>
        <mxCell id="SAI7cu0bGhrw2tJvzkPH-25" style="rounded=0;orthogonalLoop=1;jettySize=auto;html=1;exitX=0.5;exitY=1;exitDx=0;exitDy=0;" edge="1" parent="1" source="SAI7cu0bGhrw2tJvzkPH-1" target="SAI7cu0bGhrw2tJvzkPH-16">
          <mxGeometry relative="1" as="geometry" />
        </mxCell>
        <mxCell id="SAI7cu0bGhrw2tJvzkPH-26" value="hasBrand" style="edgeLabel;html=1;align=center;verticalAlign=middle;resizable=0;points=[];" connectable="0" vertex="1" parent="SAI7cu0bGhrw2tJvzkPH-25">
          <mxGeometry x="0.003" y="2" relative="1" as="geometry">
            <mxPoint as="offset" />
          </mxGeometry>
        </mxCell>
        <mxCell id="G2e1zVUv74x4g9BgBdbe-2" style="rounded=0;orthogonalLoop=1;jettySize=auto;html=1;entryX=1;entryY=1;entryDx=0;entryDy=0;" edge="1" parent="1" source="SAI7cu0bGhrw2tJvzkPH-1" target="G2e1zVUv74x4g9BgBdbe-1">
          <mxGeometry relative="1" as="geometry" />
        </mxCell>
        <mxCell id="SAI7cu0bGhrw2tJvzkPH-1" value="SmartPhone" style="rounded=0;whiteSpace=wrap;html=1;fillColor=#ffe6cc;strokeColor=#d79b00;" vertex="1" parent="1">
          <mxGeometry x="260" y="160" width="120" height="50" as="geometry" />
        </mxCell>
        <mxCell id="SAI7cu0bGhrw2tJvzkPH-2" value="name" style="ellipse;whiteSpace=wrap;html=1;fillColor=#d5e8d4;strokeColor=#82b366;" vertex="1" parent="1">
          <mxGeometry x="130" y="170" width="80" height="40" as="geometry" />
        </mxCell>
        <mxCell id="SAI7cu0bGhrw2tJvzkPH-5" value="releaseDate" style="ellipse;whiteSpace=wrap;html=1;fillColor=#d5e8d4;strokeColor=#82b366;" vertex="1" parent="1">
          <mxGeometry x="115" y="220" width="90" height="40" as="geometry" />
        </mxCell>
        <mxCell id="SAI7cu0bGhrw2tJvzkPH-35" style="rounded=0;orthogonalLoop=1;jettySize=auto;html=1;exitX=1;exitY=0.5;exitDx=0;exitDy=0;entryX=0;entryY=0;entryDx=0;entryDy=0;" edge="1" parent="1" source="SAI7cu0bGhrw2tJvzkPH-1" target="SAI7cu0bGhrw2tJvzkPH-34">
          <mxGeometry relative="1" as="geometry">
            <mxPoint x="670" y="185" as="sourcePoint" />
          </mxGeometry>
        </mxCell>
        <mxCell id="SAI7cu0bGhrw2tJvzkPH-37" value="hasCamera" style="edgeLabel;html=1;align=center;verticalAlign=middle;resizable=0;points=[];" connectable="0" vertex="1" parent="SAI7cu0bGhrw2tJvzkPH-35">
          <mxGeometry x="-0.182" relative="1" as="geometry">
            <mxPoint x="27" y="12" as="offset" />
          </mxGeometry>
        </mxCell>
        <mxCell id="SAI7cu0bGhrw2tJvzkPH-36" style="rounded=0;orthogonalLoop=1;jettySize=auto;html=1;exitX=1;exitY=0;exitDx=0;exitDy=0;entryX=0;entryY=0.5;entryDx=0;entryDy=0;" edge="1" parent="1" source="SAI7cu0bGhrw2tJvzkPH-1" target="SAI7cu0bGhrw2tJvzkPH-33">
          <mxGeometry relative="1" as="geometry">
            <mxPoint x="580" y="210" as="sourcePoint" />
          </mxGeometry>
        </mxCell>
        <mxCell id="SAI7cu0bGhrw2tJvzkPH-53" value="hasScreen" style="edgeLabel;html=1;align=center;verticalAlign=middle;resizable=0;points=[];" connectable="0" vertex="1" parent="SAI7cu0bGhrw2tJvzkPH-36">
          <mxGeometry x="0.0266" relative="1" as="geometry">
            <mxPoint as="offset" />
          </mxGeometry>
        </mxCell>
        <mxCell id="SAI7cu0bGhrw2tJvzkPH-41" style="rounded=0;orthogonalLoop=1;jettySize=auto;html=1;exitX=1;exitY=1;exitDx=0;exitDy=0;entryX=0;entryY=0;entryDx=0;entryDy=0;" edge="1" parent="1" source="SAI7cu0bGhrw2tJvzkPH-1" target="SAI7cu0bGhrw2tJvzkPH-39">
          <mxGeometry relative="1" as="geometry">
            <mxPoint x="640" y="210" as="sourcePoint" />
          </mxGeometry>
        </mxCell>
        <mxCell id="SAI7cu0bGhrw2tJvzkPH-42" value="hasCPU" style="edgeLabel;html=1;align=center;verticalAlign=middle;resizable=0;points=[];" connectable="0" vertex="1" parent="SAI7cu0bGhrw2tJvzkPH-41">
          <mxGeometry relative="1" as="geometry">
            <mxPoint y="5" as="offset" />
          </mxGeometry>
        </mxCell>
        <mxCell id="SAI7cu0bGhrw2tJvzkPH-43" style="rounded=0;orthogonalLoop=1;jettySize=auto;html=1;exitX=0.75;exitY=1;exitDx=0;exitDy=0;entryX=0.5;entryY=0;entryDx=0;entryDy=0;" edge="1" parent="1" source="SAI7cu0bGhrw2tJvzkPH-1" target="SAI7cu0bGhrw2tJvzkPH-40">
          <mxGeometry relative="1" as="geometry">
            <mxPoint x="610" y="210" as="sourcePoint" />
          </mxGeometry>
        </mxCell>
        <mxCell id="SAI7cu0bGhrw2tJvzkPH-44" value="hasBattery" style="edgeLabel;html=1;align=center;verticalAlign=middle;resizable=0;points=[];" connectable="0" vertex="1" parent="SAI7cu0bGhrw2tJvzkPH-43">
          <mxGeometry x="-0.01" y="-1" relative="1" as="geometry">
            <mxPoint x="17" y="36" as="offset" />
          </mxGeometry>
        </mxCell>
        <mxCell id="SAI7cu0bGhrw2tJvzkPH-52" style="rounded=0;orthogonalLoop=1;jettySize=auto;html=1;exitX=0;exitY=0;exitDx=0;exitDy=0;entryX=1;entryY=0.5;entryDx=0;entryDy=0;" edge="1" parent="1" source="SAI7cu0bGhrw2tJvzkPH-1" target="SAI7cu0bGhrw2tJvzkPH-51">
          <mxGeometry relative="1" as="geometry" />
        </mxCell>
        <mxCell id="SAI7cu0bGhrw2tJvzkPH-19" style="rounded=0;orthogonalLoop=1;jettySize=auto;html=1;exitX=0;exitY=0.5;exitDx=0;exitDy=0;entryX=1;entryY=0;entryDx=0;entryDy=0;" edge="1" parent="1" source="SAI7cu0bGhrw2tJvzkPH-15" target="SAI7cu0bGhrw2tJvzkPH-17">
          <mxGeometry relative="1" as="geometry" />
        </mxCell>
        <mxCell id="SAI7cu0bGhrw2tJvzkPH-21" style="rounded=0;orthogonalLoop=1;jettySize=auto;html=1;exitX=0.5;exitY=1;exitDx=0;exitDy=0;entryX=0.25;entryY=0;entryDx=0;entryDy=0;" edge="1" parent="1" source="SAI7cu0bGhrw2tJvzkPH-15" target="SAI7cu0bGhrw2tJvzkPH-16">
          <mxGeometry relative="1" as="geometry" />
        </mxCell>
        <mxCell id="SAI7cu0bGhrw2tJvzkPH-22" value="hasBrand" style="edgeLabel;html=1;align=center;verticalAlign=middle;resizable=0;points=[];" connectable="0" vertex="1" parent="SAI7cu0bGhrw2tJvzkPH-21">
          <mxGeometry x="-0.0135" y="-1" relative="1" as="geometry">
            <mxPoint as="offset" />
          </mxGeometry>
        </mxCell>
        <mxCell id="SAI7cu0bGhrw2tJvzkPH-24" style="rounded=0;orthogonalLoop=1;jettySize=auto;html=1;exitX=0;exitY=0.5;exitDx=0;exitDy=0;entryX=1;entryY=1;entryDx=0;entryDy=0;" edge="1" parent="1" source="SAI7cu0bGhrw2tJvzkPH-15" target="SAI7cu0bGhrw2tJvzkPH-23">
          <mxGeometry relative="1" as="geometry" />
        </mxCell>
        <mxCell id="SAI7cu0bGhrw2tJvzkPH-15" value="OS" style="rounded=0;whiteSpace=wrap;html=1;fillColor=#ffe6cc;strokeColor=#d79b00;" vertex="1" parent="1">
          <mxGeometry x="125" y="335" width="120" height="50" as="geometry" />
        </mxCell>
        <mxCell id="SAI7cu0bGhrw2tJvzkPH-30" style="rounded=0;orthogonalLoop=1;jettySize=auto;html=1;exitX=0;exitY=0.5;exitDx=0;exitDy=0;entryX=1;entryY=1;entryDx=0;entryDy=0;" edge="1" parent="1" source="SAI7cu0bGhrw2tJvzkPH-16" target="SAI7cu0bGhrw2tJvzkPH-27">
          <mxGeometry relative="1" as="geometry" />
        </mxCell>
        <mxCell id="SAI7cu0bGhrw2tJvzkPH-31" style="rounded=0;orthogonalLoop=1;jettySize=auto;html=1;exitX=0;exitY=0.5;exitDx=0;exitDy=0;" edge="1" parent="1" source="SAI7cu0bGhrw2tJvzkPH-16" target="SAI7cu0bGhrw2tJvzkPH-28">
          <mxGeometry relative="1" as="geometry" />
        </mxCell>
        <mxCell id="SAI7cu0bGhrw2tJvzkPH-32" style="rounded=0;orthogonalLoop=1;jettySize=auto;html=1;exitX=0;exitY=0.5;exitDx=0;exitDy=0;entryX=1;entryY=0;entryDx=0;entryDy=0;" edge="1" parent="1" source="SAI7cu0bGhrw2tJvzkPH-16" target="SAI7cu0bGhrw2tJvzkPH-29">
          <mxGeometry relative="1" as="geometry" />
        </mxCell>
        <mxCell id="SAI7cu0bGhrw2tJvzkPH-16" value="Brand" style="rounded=0;whiteSpace=wrap;html=1;fillColor=#ffe6cc;strokeColor=#d79b00;" vertex="1" parent="1">
          <mxGeometry x="260" y="520" width="120" height="50" as="geometry" />
        </mxCell>
        <mxCell id="SAI7cu0bGhrw2tJvzkPH-17" value="name" style="ellipse;whiteSpace=wrap;html=1;fillColor=#d5e8d4;strokeColor=#82b366;" vertex="1" parent="1">
          <mxGeometry x="20" y="370" width="80" height="40" as="geometry" />
        </mxCell>
        <mxCell id="SAI7cu0bGhrw2tJvzkPH-23" value="releaseDate" style="ellipse;whiteSpace=wrap;html=1;fillColor=#d5e8d4;strokeColor=#82b366;" vertex="1" parent="1">
          <mxGeometry x="15" y="310" width="90" height="40" as="geometry" />
        </mxCell>
        <mxCell id="SAI7cu0bGhrw2tJvzkPH-27" value="name" style="ellipse;whiteSpace=wrap;html=1;fillColor=#d5e8d4;strokeColor=#82b366;" vertex="1" parent="1">
          <mxGeometry x="125" y="470" width="90" height="40" as="geometry" />
        </mxCell>
        <mxCell id="SAI7cu0bGhrw2tJvzkPH-28" value="country" style="ellipse;whiteSpace=wrap;html=1;fillColor=#d5e8d4;strokeColor=#82b366;" vertex="1" parent="1">
          <mxGeometry x="120" y="530" width="90" height="40" as="geometry" />
        </mxCell>
        <mxCell id="SAI7cu0bGhrw2tJvzkPH-29" value="foundDate" style="ellipse;whiteSpace=wrap;html=1;fillColor=#d5e8d4;strokeColor=#82b366;" vertex="1" parent="1">
          <mxGeometry x="140" y="590" width="90" height="40" as="geometry" />
        </mxCell>
        <mxCell id="SAI7cu0bGhrw2tJvzkPH-48" style="rounded=0;orthogonalLoop=1;jettySize=auto;html=1;exitX=1;exitY=0.5;exitDx=0;exitDy=0;entryX=0.5;entryY=1;entryDx=0;entryDy=0;" edge="1" parent="1" source="SAI7cu0bGhrw2tJvzkPH-33" target="SAI7cu0bGhrw2tJvzkPH-45">
          <mxGeometry relative="1" as="geometry" />
        </mxCell>
        <mxCell id="SAI7cu0bGhrw2tJvzkPH-49" style="rounded=0;orthogonalLoop=1;jettySize=auto;html=1;exitX=1;exitY=0.5;exitDx=0;exitDy=0;entryX=0;entryY=0.5;entryDx=0;entryDy=0;" edge="1" parent="1" source="SAI7cu0bGhrw2tJvzkPH-33" target="SAI7cu0bGhrw2tJvzkPH-46">
          <mxGeometry relative="1" as="geometry" />
        </mxCell>
        <mxCell id="SAI7cu0bGhrw2tJvzkPH-50" style="rounded=0;orthogonalLoop=1;jettySize=auto;html=1;exitX=1;exitY=0.5;exitDx=0;exitDy=0;entryX=0;entryY=0.5;entryDx=0;entryDy=0;" edge="1" parent="1" source="SAI7cu0bGhrw2tJvzkPH-33" target="SAI7cu0bGhrw2tJvzkPH-47">
          <mxGeometry relative="1" as="geometry" />
        </mxCell>
        <mxCell id="SAI7cu0bGhrw2tJvzkPH-55" style="rounded=0;orthogonalLoop=1;jettySize=auto;html=1;exitX=1;exitY=0.5;exitDx=0;exitDy=0;entryX=0;entryY=1;entryDx=0;entryDy=0;" edge="1" parent="1" source="SAI7cu0bGhrw2tJvzkPH-33" target="SAI7cu0bGhrw2tJvzkPH-54">
          <mxGeometry relative="1" as="geometry" />
        </mxCell>
        <mxCell id="SAI7cu0bGhrw2tJvzkPH-33" value="Screen" style="rounded=0;whiteSpace=wrap;html=1;fillColor=#ffe6cc;strokeColor=#d79b00;" vertex="1" parent="1">
          <mxGeometry x="470" y="90" width="120" height="50" as="geometry" />
        </mxCell>
        <mxCell id="SAI7cu0bGhrw2tJvzkPH-57" style="rounded=0;orthogonalLoop=1;jettySize=auto;html=1;exitX=1;exitY=1;exitDx=0;exitDy=0;entryX=0;entryY=0.5;entryDx=0;entryDy=0;" edge="1" parent="1" source="SAI7cu0bGhrw2tJvzkPH-34" target="SAI7cu0bGhrw2tJvzkPH-56">
          <mxGeometry relative="1" as="geometry" />
        </mxCell>
        <mxCell id="SAI7cu0bGhrw2tJvzkPH-59" style="rounded=0;orthogonalLoop=1;jettySize=auto;html=1;exitX=1;exitY=1;exitDx=0;exitDy=0;entryX=0;entryY=0.5;entryDx=0;entryDy=0;" edge="1" parent="1" source="SAI7cu0bGhrw2tJvzkPH-34" target="SAI7cu0bGhrw2tJvzkPH-58">
          <mxGeometry relative="1" as="geometry" />
        </mxCell>
        <mxCell id="SAI7cu0bGhrw2tJvzkPH-63" style="rounded=0;orthogonalLoop=1;jettySize=auto;html=1;exitX=1;exitY=1;exitDx=0;exitDy=0;entryX=0;entryY=0;entryDx=0;entryDy=0;" edge="1" parent="1" source="SAI7cu0bGhrw2tJvzkPH-34" target="SAI7cu0bGhrw2tJvzkPH-62">
          <mxGeometry relative="1" as="geometry" />
        </mxCell>
        <mxCell id="teQyJoSa6OsPvpevDPqa-3" style="rounded=0;orthogonalLoop=1;jettySize=auto;html=1;exitX=1;exitY=1;exitDx=0;exitDy=0;entryX=0;entryY=0;entryDx=0;entryDy=0;" edge="1" parent="1" source="SAI7cu0bGhrw2tJvzkPH-34" target="SAI7cu0bGhrw2tJvzkPH-60">
          <mxGeometry relative="1" as="geometry" />
        </mxCell>
        <mxCell id="SAI7cu0bGhrw2tJvzkPH-34" value="Camera" style="rounded=0;whiteSpace=wrap;html=1;fillColor=#ffe6cc;strokeColor=#d79b00;" vertex="1" parent="1">
          <mxGeometry x="560" y="290" width="120" height="50" as="geometry" />
        </mxCell>
        <mxCell id="SAI7cu0bGhrw2tJvzkPH-65" style="rounded=0;orthogonalLoop=1;jettySize=auto;html=1;exitX=0.5;exitY=1;exitDx=0;exitDy=0;entryX=0;entryY=0;entryDx=0;entryDy=0;" edge="1" parent="1" source="SAI7cu0bGhrw2tJvzkPH-39" target="SAI7cu0bGhrw2tJvzkPH-64">
          <mxGeometry relative="1" as="geometry" />
        </mxCell>
        <mxCell id="SAI7cu0bGhrw2tJvzkPH-69" style="rounded=0;orthogonalLoop=1;jettySize=auto;html=1;exitX=0.5;exitY=1;exitDx=0;exitDy=0;entryX=0.5;entryY=0;entryDx=0;entryDy=0;" edge="1" parent="1" source="SAI7cu0bGhrw2tJvzkPH-39" target="SAI7cu0bGhrw2tJvzkPH-68">
          <mxGeometry relative="1" as="geometry" />
        </mxCell>
        <mxCell id="SAI7cu0bGhrw2tJvzkPH-71" style="rounded=0;orthogonalLoop=1;jettySize=auto;html=1;exitX=0.5;exitY=1;exitDx=0;exitDy=0;" edge="1" parent="1" source="SAI7cu0bGhrw2tJvzkPH-39" target="SAI7cu0bGhrw2tJvzkPH-70">
          <mxGeometry relative="1" as="geometry" />
        </mxCell>
        <mxCell id="SAI7cu0bGhrw2tJvzkPH-39" value="CPU" style="rounded=0;whiteSpace=wrap;html=1;fillColor=#ffe6cc;strokeColor=#d79b00;" vertex="1" parent="1">
          <mxGeometry x="550" y="420" width="120" height="50" as="geometry" />
        </mxCell>
        <mxCell id="VnUFGNItrEHGbra4nqw3-4" style="rounded=0;orthogonalLoop=1;jettySize=auto;html=1;exitX=0.5;exitY=1;exitDx=0;exitDy=0;" edge="1" parent="1" source="SAI7cu0bGhrw2tJvzkPH-40" target="VnUFGNItrEHGbra4nqw3-1">
          <mxGeometry relative="1" as="geometry" />
        </mxCell>
        <mxCell id="VnUFGNItrEHGbra4nqw3-5" style="rounded=0;orthogonalLoop=1;jettySize=auto;html=1;exitX=0.5;exitY=1;exitDx=0;exitDy=0;entryX=0.5;entryY=0;entryDx=0;entryDy=0;" edge="1" parent="1" source="SAI7cu0bGhrw2tJvzkPH-40" target="VnUFGNItrEHGbra4nqw3-2">
          <mxGeometry relative="1" as="geometry" />
        </mxCell>
        <mxCell id="SAI7cu0bGhrw2tJvzkPH-40" value="Battery" style="rounded=0;whiteSpace=wrap;html=1;fillColor=#ffe6cc;strokeColor=#d79b00;" vertex="1" parent="1">
          <mxGeometry x="365" y="420" width="120" height="50" as="geometry" />
        </mxCell>
        <mxCell id="SAI7cu0bGhrw2tJvzkPH-45" value="type" style="ellipse;whiteSpace=wrap;html=1;fillColor=#d5e8d4;strokeColor=#82b366;" vertex="1" parent="1">
          <mxGeometry x="580" width="90" height="40" as="geometry" />
        </mxCell>
        <mxCell id="SAI7cu0bGhrw2tJvzkPH-46" value="size" style="ellipse;whiteSpace=wrap;html=1;fillColor=#d5e8d4;strokeColor=#82b366;" vertex="1" parent="1">
          <mxGeometry x="690" y="70" width="90" height="40" as="geometry" />
        </mxCell>
        <mxCell id="SAI7cu0bGhrw2tJvzkPH-47" value="resolution" style="ellipse;whiteSpace=wrap;html=1;fillColor=#d5e8d4;strokeColor=#82b366;" vertex="1" parent="1">
          <mxGeometry x="720" y="120" width="90" height="40" as="geometry" />
        </mxCell>
        <mxCell id="SAI7cu0bGhrw2tJvzkPH-51" value="simType" style="ellipse;whiteSpace=wrap;html=1;fillColor=#d5e8d4;strokeColor=#82b366;" vertex="1" parent="1">
          <mxGeometry x="110" y="120" width="100" height="40" as="geometry" />
        </mxCell>
        <mxCell id="SAI7cu0bGhrw2tJvzkPH-54" value="refreshRate" style="ellipse;whiteSpace=wrap;html=1;fillColor=#d5e8d4;strokeColor=#82b366;" vertex="1" parent="1">
          <mxGeometry x="670" y="20" width="90" height="40" as="geometry" />
        </mxCell>
        <mxCell id="SAI7cu0bGhrw2tJvzkPH-56" value="type" style="ellipse;whiteSpace=wrap;html=1;fillColor=#d5e8d4;strokeColor=#82b366;" vertex="1" parent="1">
          <mxGeometry x="740" y="280" width="90" height="40" as="geometry" />
        </mxCell>
        <mxCell id="SAI7cu0bGhrw2tJvzkPH-58" value="resolution" style="ellipse;whiteSpace=wrap;html=1;fillColor=#d5e8d4;strokeColor=#82b366;" vertex="1" parent="1">
          <mxGeometry x="745" y="330" width="90" height="40" as="geometry" />
        </mxCell>
        <mxCell id="SAI7cu0bGhrw2tJvzkPH-60" value="video" style="ellipse;whiteSpace=wrap;html=1;fillColor=#d5e8d4;strokeColor=#82b366;" vertex="1" parent="1">
          <mxGeometry x="730" y="380" width="80" height="40" as="geometry" />
        </mxCell>
        <mxCell id="SAI7cu0bGhrw2tJvzkPH-62" value="features" style="ellipse;whiteSpace=wrap;html=1;fillColor=#d5e8d4;strokeColor=#82b366;" vertex="1" parent="1">
          <mxGeometry x="710" y="430" width="90" height="40" as="geometry" />
        </mxCell>
        <mxCell id="SAI7cu0bGhrw2tJvzkPH-64" value="name" style="ellipse;whiteSpace=wrap;html=1;fillColor=#d5e8d4;strokeColor=#82b366;" vertex="1" parent="1">
          <mxGeometry x="680" y="500" width="70" height="40" as="geometry" />
        </mxCell>
        <mxCell id="SAI7cu0bGhrw2tJvzkPH-68" value="parameter" style="ellipse;whiteSpace=wrap;html=1;fillColor=#d5e8d4;strokeColor=#82b366;" vertex="1" parent="1">
          <mxGeometry x="590" y="530" width="90" height="40" as="geometry" />
        </mxCell>
        <mxCell id="SAI7cu0bGhrw2tJvzkPH-70" value="arch" style="ellipse;whiteSpace=wrap;html=1;fillColor=#d5e8d4;strokeColor=#82b366;" vertex="1" parent="1">
          <mxGeometry x="510" y="500" width="70" height="40" as="geometry" />
        </mxCell>
        <mxCell id="VnUFGNItrEHGbra4nqw3-1" value="capacity" style="ellipse;whiteSpace=wrap;html=1;fillColor=#d5e8d4;strokeColor=#82b366;" vertex="1" parent="1">
          <mxGeometry x="365" y="590" width="70" height="40" as="geometry" />
        </mxCell>
        <mxCell id="VnUFGNItrEHGbra4nqw3-2" value="charge" style="ellipse;whiteSpace=wrap;html=1;fillColor=#d5e8d4;strokeColor=#82b366;" vertex="1" parent="1">
          <mxGeometry x="450" y="590" width="70" height="40" as="geometry" />
        </mxCell>
        <mxCell id="G2e1zVUv74x4g9BgBdbe-1" value="storageCapacity" style="ellipse;whiteSpace=wrap;html=1;fillColor=#d5e8d4;strokeColor=#82b366;" vertex="1" parent="1">
          <mxGeometry x="150" y="70" width="120" height="40" as="geometry" />
        </mxCell>
        <mxCell id="8xlYgwjWIX8uKXxKfpxu-5" style="rounded=0;orthogonalLoop=1;jettySize=auto;html=1;exitX=0.5;exitY=1;exitDx=0;exitDy=0;entryX=0.5;entryY=0;entryDx=0;entryDy=0;" edge="1" parent="1" source="8xlYgwjWIX8uKXxKfpxu-3" target="SAI7cu0bGhrw2tJvzkPH-34">
          <mxGeometry relative="1" as="geometry" />
        </mxCell>
        <mxCell id="8xlYgwjWIX8uKXxKfpxu-7" value="rdfs:subClassOf" style="edgeLabel;html=1;align=center;verticalAlign=middle;resizable=0;points=[];" connectable="0" vertex="1" parent="8xlYgwjWIX8uKXxKfpxu-5">
          <mxGeometry x="-0.172" y="-1" relative="1" as="geometry">
            <mxPoint as="offset" />
          </mxGeometry>
        </mxCell>
        <mxCell id="8xlYgwjWIX8uKXxKfpxu-3" value="FrontCamera" style="rounded=0;whiteSpace=wrap;html=1;fillColor=#ffe6cc;strokeColor=#d79b00;" vertex="1" parent="1">
          <mxGeometry x="560" y="170" width="120" height="50" as="geometry" />
        </mxCell>
        <mxCell id="8xlYgwjWIX8uKXxKfpxu-6" style="rounded=0;orthogonalLoop=1;jettySize=auto;html=1;exitX=0;exitY=1;exitDx=0;exitDy=0;" edge="1" parent="1" source="8xlYgwjWIX8uKXxKfpxu-4">
          <mxGeometry relative="1" as="geometry">
            <mxPoint x="680" y="290" as="targetPoint" />
          </mxGeometry>
        </mxCell>
        <mxCell id="8xlYgwjWIX8uKXxKfpxu-8" value="rdfs:subClassOf" style="edgeLabel;html=1;align=center;verticalAlign=middle;resizable=0;points=[];" connectable="0" vertex="1" parent="8xlYgwjWIX8uKXxKfpxu-6">
          <mxGeometry x="-0.1603" y="-1" relative="1" as="geometry">
            <mxPoint as="offset" />
          </mxGeometry>
        </mxCell>
        <mxCell id="8xlYgwjWIX8uKXxKfpxu-4" value="MainCamera" style="rounded=0;whiteSpace=wrap;html=1;fillColor=#ffe6cc;strokeColor=#d79b00;" vertex="1" parent="1">
          <mxGeometry x="730" y="190" width="120" height="50" as="geometry" />
        </mxCell>
        <mxCell id="8xlYgwjWIX8uKXxKfpxu-10" style="rounded=0;orthogonalLoop=1;jettySize=auto;html=1;exitX=0.5;exitY=1;exitDx=0;exitDy=0;entryX=0.75;entryY=0;entryDx=0;entryDy=0;" edge="1" parent="1" source="8xlYgwjWIX8uKXxKfpxu-9" target="SAI7cu0bGhrw2tJvzkPH-1">
          <mxGeometry relative="1" as="geometry" />
        </mxCell>
        <mxCell id="teQyJoSa6OsPvpevDPqa-1" value="owl:equivalentClass" style="edgeLabel;html=1;align=center;verticalAlign=middle;resizable=0;points=[];" connectable="0" vertex="1" parent="8xlYgwjWIX8uKXxKfpxu-10">
          <mxGeometry x="0.1307" relative="1" as="geometry">
            <mxPoint y="-23" as="offset" />
          </mxGeometry>
        </mxCell>
        <mxCell id="8xlYgwjWIX8uKXxKfpxu-9" value="Tablet" style="rounded=0;whiteSpace=wrap;html=1;fillColor=#ffe6cc;strokeColor=#d79b00;" vertex="1" parent="1">
          <mxGeometry x="290" width="120" height="50" as="geometry" />
        </mxCell>
      </root>
    </mxGraphModel>
  </diagram>
  <diagram id="YjiOITtrMgFJihuCKklx" name="arch">
    <mxGraphModel grid="1" page="1" gridSize="10" guides="1" tooltips="1" connect="1" arrows="1" fold="1" pageScale="1" pageWidth="850" pageHeight="1100" math="0" shadow="0">
      <root>
        <mxCell id="0" />
        <mxCell id="1" parent="0" />
        <mxCell id="2UwAMY9XKX6b1lPQQfWc-4" value="" style="rounded=0;whiteSpace=wrap;html=1;fillColor=none;dashed=1;" vertex="1" parent="1">
          <mxGeometry x="110" y="200" width="320" height="120" as="geometry" />
        </mxCell>
        <mxCell id="2UwAMY9XKX6b1lPQQfWc-1" value="Wikipedia" style="shape=image;verticalLabelPosition=bottom;labelBackgroundColor=default;verticalAlign=top;aspect=fixed;imageAspect=0;image=https://upload.wikimedia.org/wikipedia/commons/d/de/Wikipedia_Logo_1.0.png;" vertex="1" parent="1">
          <mxGeometry x="130" y="215" width="70" height="70" as="geometry" />
        </mxCell>
        <mxCell id="2UwAMY9XKX6b1lPQQfWc-2" value="ChatGPT" style="shape=image;verticalLabelPosition=bottom;labelBackgroundColor=default;verticalAlign=top;aspect=fixed;imageAspect=0;image=https://freelogopng.com/images/all_img/1681038242chatgpt-logo-png.png;" vertex="1" parent="1">
          <mxGeometry x="230" y="220" width="60" height="60" as="geometry" />
        </mxCell>
        <mxCell id="2UwAMY9XKX6b1lPQQfWc-3" value="Public Websites" style="sketch=0;pointerEvents=1;shadow=0;dashed=0;html=1;strokeColor=none;fillColor=#505050;labelPosition=center;verticalLabelPosition=bottom;verticalAlign=top;outlineConnect=0;align=center;shape=mxgraph.office.concepts.website;" vertex="1" parent="1">
          <mxGeometry x="325" y="220" width="77.5" height="60" as="geometry" />
        </mxCell>
        <mxCell id="2UwAMY9XKX6b1lPQQfWc-11" style="edgeStyle=orthogonalEdgeStyle;rounded=0;orthogonalLoop=1;jettySize=auto;html=1;exitX=1;exitY=0.5;exitDx=0;exitDy=0;exitPerimeter=0;" edge="1" parent="1" source="2UwAMY9XKX6b1lPQQfWc-14" target="2UwAMY9XKX6b1lPQQfWc-10">
          <mxGeometry relative="1" as="geometry" />
        </mxCell>
        <mxCell id="2UwAMY9XKX6b1lPQQfWc-41" value="load" style="edgeLabel;html=1;align=center;verticalAlign=middle;resizable=0;points=[];" connectable="0" vertex="1" parent="2UwAMY9XKX6b1lPQQfWc-11">
          <mxGeometry x="-0.1475" relative="1" as="geometry">
            <mxPoint as="offset" />
          </mxGeometry>
        </mxCell>
        <mxCell id="2UwAMY9XKX6b1lPQQfWc-10" value="" style="shape=image;verticalLabelPosition=top;labelBackgroundColor=default;verticalAlign=bottom;aspect=fixed;imageAspect=0;image=https://upload.wikimedia.org/wikipedia/commons/thumb/0/03/Apache_Jena_logo.svg/1100px-Apache_Jena_logo.svg.png;horizontal=1;labelPosition=center;align=center;" vertex="1" parent="1">
          <mxGeometry x="605.59" y="408.86" width="90" height="62.27" as="geometry" />
        </mxCell>
        <mxCell id="2UwAMY9XKX6b1lPQQfWc-17" style="edgeStyle=orthogonalEdgeStyle;rounded=0;orthogonalLoop=1;jettySize=auto;html=1;exitX=1;exitY=0.5;exitDx=0;exitDy=0;exitPerimeter=0;entryX=0;entryY=0.5;entryDx=0;entryDy=0;entryPerimeter=0;" edge="1" parent="1" source="2UwAMY9XKX6b1lPQQfWc-12" target="2UwAMY9XKX6b1lPQQfWc-13">
          <mxGeometry relative="1" as="geometry">
            <mxPoint x="305" y="325" as="targetPoint" />
          </mxGeometry>
        </mxCell>
        <mxCell id="2UwAMY9XKX6b1lPQQfWc-39" value="transform" style="edgeLabel;html=1;align=center;verticalAlign=middle;resizable=0;points=[];" connectable="0" vertex="1" parent="2UwAMY9XKX6b1lPQQfWc-17">
          <mxGeometry x="-0.0526" y="-1" relative="1" as="geometry">
            <mxPoint as="offset" />
          </mxGeometry>
        </mxCell>
        <mxCell id="2UwAMY9XKX6b1lPQQfWc-12" value="bronze" style="shape=cylinder3;whiteSpace=wrap;html=1;boundedLbl=1;backgroundOutline=1;size=15;fillColor=#f8cecc;strokeColor=#b85450;" vertex="1" parent="1">
          <mxGeometry x="160" y="400" width="60" height="80" as="geometry" />
        </mxCell>
        <mxCell id="2UwAMY9XKX6b1lPQQfWc-13" value="silver" style="shape=cylinder3;whiteSpace=wrap;html=1;boundedLbl=1;backgroundOutline=1;size=15;fillColor=#f5f5f5;fontColor=#333333;strokeColor=#666666;" vertex="1" parent="1">
          <mxGeometry x="310" y="400" width="60" height="80" as="geometry" />
        </mxCell>
        <mxCell id="2UwAMY9XKX6b1lPQQfWc-27" style="edgeStyle=orthogonalEdgeStyle;rounded=0;orthogonalLoop=1;jettySize=auto;html=1;exitX=0.5;exitY=1;exitDx=0;exitDy=0;exitPerimeter=0;" edge="1" parent="1" source="2UwAMY9XKX6b1lPQQfWc-14" target="2UwAMY9XKX6b1lPQQfWc-25">
          <mxGeometry relative="1" as="geometry" />
        </mxCell>
        <mxCell id="2UwAMY9XKX6b1lPQQfWc-42" value="load" style="edgeLabel;html=1;align=center;verticalAlign=middle;resizable=0;points=[];" connectable="0" vertex="1" parent="2UwAMY9XKX6b1lPQQfWc-27">
          <mxGeometry x="-0.12" relative="1" as="geometry">
            <mxPoint as="offset" />
          </mxGeometry>
        </mxCell>
        <mxCell id="2UwAMY9XKX6b1lPQQfWc-14" value="gold" style="shape=cylinder3;whiteSpace=wrap;html=1;boundedLbl=1;backgroundOutline=1;size=15;fillColor=#fff2cc;strokeColor=#d6b656;" vertex="1" parent="1">
          <mxGeometry x="460" y="400" width="60" height="80" as="geometry" />
        </mxCell>
        <mxCell id="2UwAMY9XKX6b1lPQQfWc-20" style="edgeStyle=orthogonalEdgeStyle;rounded=0;orthogonalLoop=1;jettySize=auto;html=1;exitX=1;exitY=0.5;exitDx=0;exitDy=0;entryX=0;entryY=0.5;entryDx=0;entryDy=0;entryPerimeter=0;exitPerimeter=0;" edge="1" parent="1" source="2UwAMY9XKX6b1lPQQfWc-13" target="2UwAMY9XKX6b1lPQQfWc-14">
          <mxGeometry relative="1" as="geometry">
            <mxPoint x="510" y="350" as="sourcePoint" />
          </mxGeometry>
        </mxCell>
        <mxCell id="2UwAMY9XKX6b1lPQQfWc-40" value="load" style="edgeLabel;html=1;align=center;verticalAlign=middle;resizable=0;points=[];" connectable="0" vertex="1" parent="2UwAMY9XKX6b1lPQQfWc-20">
          <mxGeometry x="-0.0526" y="-1" relative="1" as="geometry">
            <mxPoint as="offset" />
          </mxGeometry>
        </mxCell>
        <mxCell id="2UwAMY9XKX6b1lPQQfWc-22" style="edgeStyle=orthogonalEdgeStyle;rounded=0;orthogonalLoop=1;jettySize=auto;html=1;entryX=1;entryY=0.5;entryDx=0;entryDy=0;" edge="1" parent="1" source="2UwAMY9XKX6b1lPQQfWc-21" target="2UwAMY9XKX6b1lPQQfWc-10">
          <mxGeometry relative="1" as="geometry" />
        </mxCell>
        <mxCell id="2UwAMY9XKX6b1lPQQfWc-23" value="query" style="edgeLabel;html=1;align=center;verticalAlign=middle;resizable=0;points=[];" connectable="0" vertex="1" parent="2UwAMY9XKX6b1lPQQfWc-22">
          <mxGeometry x="-0.1539" y="-1" relative="1" as="geometry">
            <mxPoint as="offset" />
          </mxGeometry>
        </mxCell>
        <mxCell id="2UwAMY9XKX6b1lPQQfWc-21" value="" style="sketch=0;outlineConnect=0;fontColor=#232F3E;gradientColor=none;fillColor=#232F3D;strokeColor=none;dashed=0;verticalLabelPosition=bottom;verticalAlign=top;align=center;html=1;fontSize=12;fontStyle=0;aspect=fixed;pointerEvents=1;shape=mxgraph.aws4.user;" vertex="1" parent="1">
          <mxGeometry x="790" y="410" width="60" height="60" as="geometry" />
        </mxCell>
        <mxCell id="2UwAMY9XKX6b1lPQQfWc-24" value="" style="shape=image;verticalLabelPosition=bottom;labelBackgroundColor=default;verticalAlign=top;aspect=fixed;imageAspect=0;image=https://seeklogo.com/images/D/dbpedia-logo-EE52F0085B-seeklogo.com.png;" vertex="1" parent="1">
          <mxGeometry x="110" y="565" width="97.29" height="60" as="geometry" />
        </mxCell>
        <mxCell id="2UwAMY9XKX6b1lPQQfWc-25" value="Silk Framework" style="rounded=0;whiteSpace=wrap;html=1;fillColor=#d5e8d4;strokeColor=#82b366;" vertex="1" parent="1">
          <mxGeometry x="430" y="570" width="120" height="50" as="geometry" />
        </mxCell>
        <mxCell id="2UwAMY9XKX6b1lPQQfWc-35" style="edgeStyle=orthogonalEdgeStyle;rounded=0;orthogonalLoop=1;jettySize=auto;html=1;exitX=0;exitY=0;exitDx=30;exitDy=0;exitPerimeter=0;" edge="1" parent="1" source="2UwAMY9XKX6b1lPQQfWc-28" target="2UwAMY9XKX6b1lPQQfWc-10">
          <mxGeometry relative="1" as="geometry" />
        </mxCell>
        <mxCell id="2UwAMY9XKX6b1lPQQfWc-45" value="load" style="edgeLabel;html=1;align=center;verticalAlign=middle;resizable=0;points=[];" connectable="0" vertex="1" parent="2UwAMY9XKX6b1lPQQfWc-35">
          <mxGeometry x="-0.0581" y="-1" relative="1" as="geometry">
            <mxPoint as="offset" />
          </mxGeometry>
        </mxCell>
        <mxCell id="2UwAMY9XKX6b1lPQQfWc-28" value="Links" style="shape=note;whiteSpace=wrap;html=1;backgroundOutline=1;darkOpacity=0.05;spacingTop=26;" vertex="1" parent="1">
          <mxGeometry x="620.59" y="555" width="60" height="80" as="geometry" />
        </mxCell>
        <mxCell id="2UwAMY9XKX6b1lPQQfWc-29" style="edgeStyle=orthogonalEdgeStyle;rounded=0;orthogonalLoop=1;jettySize=auto;html=1;exitX=1;exitY=0.5;exitDx=0;exitDy=0;entryX=0;entryY=0.5;entryDx=0;entryDy=0;entryPerimeter=0;" edge="1" parent="1" source="2UwAMY9XKX6b1lPQQfWc-25" target="2UwAMY9XKX6b1lPQQfWc-28">
          <mxGeometry relative="1" as="geometry" />
        </mxCell>
        <mxCell id="2UwAMY9XKX6b1lPQQfWc-44" value="link" style="edgeLabel;html=1;align=center;verticalAlign=middle;resizable=0;points=[];" connectable="0" vertex="1" parent="2UwAMY9XKX6b1lPQQfWc-29">
          <mxGeometry x="-0.0239" relative="1" as="geometry">
            <mxPoint as="offset" />
          </mxGeometry>
        </mxCell>
        <mxCell id="2UwAMY9XKX6b1lPQQfWc-33" style="edgeStyle=orthogonalEdgeStyle;rounded=0;orthogonalLoop=1;jettySize=auto;html=1;exitX=1;exitY=0.5;exitDx=0;exitDy=0;entryX=0;entryY=0.5;entryDx=0;entryDy=0;entryPerimeter=0;" edge="1" parent="1" source="2UwAMY9XKX6b1lPQQfWc-24" target="2UwAMY9XKX6b1lPQQfWc-46">
          <mxGeometry relative="1" as="geometry">
            <mxPoint x="310" y="595" as="sourcePoint" />
            <mxPoint x="325" y="595" as="targetPoint" />
          </mxGeometry>
        </mxCell>
        <mxCell id="2UwAMY9XKX6b1lPQQfWc-43" value="extract" style="edgeLabel;html=1;align=center;verticalAlign=middle;resizable=0;points=[];" connectable="0" vertex="1" parent="2UwAMY9XKX6b1lPQQfWc-33">
          <mxGeometry x="-0.0095" y="-1" relative="1" as="geometry">
            <mxPoint as="offset" />
          </mxGeometry>
        </mxCell>
        <mxCell id="2UwAMY9XKX6b1lPQQfWc-37" style="edgeStyle=orthogonalEdgeStyle;rounded=0;orthogonalLoop=1;jettySize=auto;html=1;exitX=0.25;exitY=1;exitDx=0;exitDy=0;entryX=0.5;entryY=0;entryDx=0;entryDy=0;entryPerimeter=0;" edge="1" parent="1" source="2UwAMY9XKX6b1lPQQfWc-4" target="2UwAMY9XKX6b1lPQQfWc-12">
          <mxGeometry relative="1" as="geometry" />
        </mxCell>
        <mxCell id="2UwAMY9XKX6b1lPQQfWc-38" value="extract" style="edgeLabel;html=1;align=center;verticalAlign=middle;resizable=0;points=[];" connectable="0" vertex="1" parent="2UwAMY9XKX6b1lPQQfWc-37">
          <mxGeometry x="-0.0435" relative="1" as="geometry">
            <mxPoint as="offset" />
          </mxGeometry>
        </mxCell>
        <mxCell id="2UwAMY9XKX6b1lPQQfWc-47" style="edgeStyle=orthogonalEdgeStyle;rounded=0;orthogonalLoop=1;jettySize=auto;html=1;entryX=0;entryY=0.5;entryDx=0;entryDy=0;" edge="1" parent="1" source="2UwAMY9XKX6b1lPQQfWc-46" target="2UwAMY9XKX6b1lPQQfWc-25">
          <mxGeometry relative="1" as="geometry" />
        </mxCell>
        <mxCell id="2UwAMY9XKX6b1lPQQfWc-48" value="load" style="edgeLabel;html=1;align=center;verticalAlign=middle;resizable=0;points=[];" connectable="0" vertex="1" parent="2UwAMY9XKX6b1lPQQfWc-47">
          <mxGeometry x="-0.0847" relative="1" as="geometry">
            <mxPoint as="offset" />
          </mxGeometry>
        </mxCell>
        <mxCell id="2UwAMY9XKX6b1lPQQfWc-46" value="Open&lt;div&gt;Data&lt;/div&gt;" style="shape=note;whiteSpace=wrap;html=1;backgroundOutline=1;darkOpacity=0.05;spacingTop=26;" vertex="1" parent="1">
          <mxGeometry x="290.00000000000006" y="555" width="60" height="80" as="geometry" />
        </mxCell>
        <mxCell id="2UwAMY9XKX6b1lPQQfWc-53" style="edgeStyle=orthogonalEdgeStyle;rounded=0;orthogonalLoop=1;jettySize=auto;html=1;entryX=0.5;entryY=0;entryDx=0;entryDy=0;" edge="1" parent="1" source="2UwAMY9XKX6b1lPQQfWc-52" target="2UwAMY9XKX6b1lPQQfWc-10">
          <mxGeometry relative="1" as="geometry" />
        </mxCell>
        <mxCell id="2UwAMY9XKX6b1lPQQfWc-54" value="load" style="edgeLabel;html=1;align=center;verticalAlign=middle;resizable=0;points=[];" connectable="0" vertex="1" parent="2UwAMY9XKX6b1lPQQfWc-53">
          <mxGeometry x="0.1266" y="-1" relative="1" as="geometry">
            <mxPoint as="offset" />
          </mxGeometry>
        </mxCell>
        <mxCell id="2UwAMY9XKX6b1lPQQfWc-52" value="Ontology" style="image;sketch=0;aspect=fixed;html=1;points=[];align=center;fontSize=12;image=img/lib/mscae/Resource_Graph_Explorer.svg;" vertex="1" parent="1">
          <mxGeometry x="626.09" y="225" width="49" height="50" as="geometry" />
        </mxCell>
      </root>
    </mxGraphModel>
  </diagram>
</mxfile>
